<svg width="48" height="48" viewBox="0 0 48 48" fill="none" xmlns="http://www.w3.org/2000/svg">
<rect x="0.5" y="0.5" width="47" height="47" rx="23.5" fill="#F5F5F5"/>
<rect x="0.5" y="0.5" width="47" height="47" rx="23.5" stroke="#EBEBEA"/>
<mask id="mask0_5272_12257" style="mask-type:alpha" maskUnits="userSpaceOnUse" x="12" y="12" width="24" height="24">
<rect x="12" y="12" width="24" height="24" fill="#D9D9D9"/>
</mask>
<g mask="url(#mask0_5272_12257)">
<path d="M17.025 33C16.475 33 16.0041 32.8042 15.6125 32.4125C15.2208 32.0208 15.025 31.55 15.025 31V23.05C14.6416 22.7 14.3458 22.25 14.1375 21.7C13.9291 21.15 13.925 20.55 14.125 19.9L15.175 16.5C15.3083 16.0667 15.5458 15.7083 15.8875 15.425C16.2291 15.1417 16.625 15 17.075 15H30.975C31.425 15 31.8166 15.1375 32.15 15.4125C32.4833 15.6875 32.725 16.05 32.875 16.5L33.925 19.9C34.125 20.55 34.1208 21.1417 33.9125 21.675C33.7041 22.2083 33.4083 22.6667 33.025 23.05V31C33.025 31.55 32.8291 32.0208 32.4375 32.4125C32.0458 32.8042 31.575 33 31.025 33H17.025ZM26.225 22C26.675 22 27.0166 21.8458 27.25 21.5375C27.4833 21.2292 27.575 20.8833 27.525 20.5L26.975 17H25.025V20.7C25.025 21.05 25.1416 21.3542 25.375 21.6125C25.6083 21.8708 25.8916 22 26.225 22ZM21.725 22C22.1083 22 22.4208 21.8708 22.6625 21.6125C22.9041 21.3542 23.025 21.05 23.025 20.7V17H21.075L20.525 20.5C20.4583 20.9 20.5458 21.25 20.7875 21.55C21.0291 21.85 21.3416 22 21.725 22ZM17.275 22C17.575 22 17.8375 21.8917 18.0625 21.675C18.2875 21.4583 18.425 21.1833 18.475 20.85L19.025 17H17.075L16.075 20.35C15.975 20.6833 16.0291 21.0417 16.2375 21.425C16.4458 21.8083 16.7916 22 17.275 22ZM30.775 22C31.2583 22 31.6083 21.8083 31.825 21.425C32.0416 21.0417 32.0916 20.6833 31.975 20.35L30.925 17H29.025L29.575 20.85C29.625 21.1833 29.7625 21.4583 29.9875 21.675C30.2125 21.8917 30.475 22 30.775 22Z" fill="#D4D4D3"/>
</g>
</svg>
