<svg width="42" height="42" viewBox="0 0 42 42" fill="none" xmlns="http://www.w3.org/2000/svg">
<rect x="0.5" y="0.5" width="41" height="41" rx="20.5" fill="#F5F5F5"/>
<rect x="0.5" y="0.5" width="41" height="41" rx="20.5" stroke="#EBEBEA"/>
<path d="M23 29C23 29.0113 22.9942 30.9999 21 31C19.0057 31 19 29.0114 19 29H23ZM21 11C22.1045 11.0001 23 11.8955 23 13C23 13.0966 22.9898 13.1912 22.9766 13.2842C25.8799 14.1373 28 16.8206 28 20V26C28.5522 26.0001 29 26.4477 29 27C29 27.5522 28.5522 27.9999 28 28H14L13.8975 27.9951C13.3933 27.9438 13 27.5177 13 27C13 26.4823 13.3933 26.0562 13.8975 26.0049L14 26V20C14 16.8209 16.1196 14.1376 19.0225 13.2842C19.0092 13.1913 19 13.0966 19 13C19 11.8954 19.8954 11 21 11Z" fill="#D4D4D3"/>
</svg>
